<svg width="162" height="118" viewBox="0 0 162 118" fill="none" xmlns="http://www.w3.org/2000/svg">
<path d="M161.221 70.6321L121.271 93.5754M161.221 70.6321V93.5754L121.271 117M161.221 70.6321L141.326 59.1502M121.271 93.5754V117M121.271 93.5754L80.9466 70.272M0.778687 23.9433L40.5685 1L80.9466 24.3034M0.778687 23.9433V47.1077L20.6471 59.1502M0.778687 23.9433L40.8627 47.1077M0.778687 70.6321L40.5685 93.5754M0.778687 70.6321V93.5754L40.5685 117M0.778687 70.6321L20.6471 59.1502M161.221 23.9433L121.271 1L80.9466 24.3034M161.221 23.9433V46.8866L141.326 59.1502M161.221 23.9433L121.084 47.1077M40.5685 93.5754L80.9466 70.272M40.5685 93.5754V117M80.8396 93.5754L121.271 117M80.8396 93.5754L40.5685 117M80.8396 93.5754L80.9466 70.272M80.9466 70.272L101.015 58.6898M80.9466 70.272L60.9046 58.6898M80.9466 70.272L120.772 47.2877M141.326 59.1502L121.084 47.1077M141.326 59.1502L120.772 47.2877M121.084 47.1077L80.9466 24.3034M121.084 47.1077L120.772 47.2877M20.6471 59.1502L40.8627 47.1077M20.6471 59.1502L80.9466 24.3034M40.8627 47.1077L60.9046 58.6898M80.9466 24.3034V47.1077M80.9466 24.3034L120.772 47.2877M80.9466 47.1077L101.015 58.6898M80.9466 47.1077L60.9046 58.6898M101.015 58.6898L120.772 47.2877" stroke="#ffffff"/>
</svg>
